<?xml version="1.0" encoding="utf-8"?>
<!-- Generator: Adobe Illustrator 16.0.0, SVG Export Plug-In . SVG Version: 6.00 Build 0)  -->
<!DOCTYPE svg PUBLIC "-//W3C//DTD SVG 1.1//EN" "http://www.w3.org/Graphics/SVG/1.1/DTD/svg11.dtd">
<svg version="1.1" id="Layer_1" xmlns="http://www.w3.org/2000/svg" xmlns:xlink="http://www.w3.org/1999/xlink" x="0px" y="0px"
	 width="500px" height="237.88px" viewBox="0 0 500 237.88" enable-background="new 0 0 500 237.88" xml:space="preserve">
<g>
	<g>
		<path fill="#63C5B5" d="M35.399,102.242c0,0.672-0.132,1.339-0.401,2.001c-0.933,2.001-2.533,3.007-4.799,3.007
			c-0.802,0-1.534-0.141-2.203-0.404c-1.999-0.934-2.998-2.462-2.998-4.604V9.803c0-0.934,0.132-1.734,0.4-2.396
			C26.464,5.398,28.062,4.4,30.199,4.4c0.801,0,1.465,0.141,1.998,0.405c2.135,0.933,3.203,2.603,3.203,4.998V102.242z"/>
		<path fill="#FFFFFF" d="M72.893,63.301c6.002,4.536,9,11.334,9,20.398c0,9.74-2.999,16.604-9,20.603
			c-3.332,2.139-7.067,3.206-11.201,3.206c-4.667,0-8.797-1.337-12.4-4.001c-5.069-4.269-7.535-10.869-7.403-19.808
			c0-9.46,3.003-16.199,9-20.201c3.203-2.262,6.803-3.403,10.803-3.403C65.958,60.095,69.693,61.168,72.893,63.301z M61.692,97.107
			c6.536,0,9.803-4.469,9.803-13.409c0-8.667-3.267-12.996-9.803-12.996c-1.735,0-3.4,0.529-4.998,1.596
			c-2.939,1.867-4.404,5.667-4.404,11.4V84.5C52.29,92.903,55.425,97.107,61.692,97.107z"/>
		<path fill="#FFFFFF" d="M121.1,63.301c6.002,4.536,9,11.334,9,20.398c0,9.74-2.999,16.604-9,20.603
			c-3.334,2.139-7.069,3.206-11.203,3.206c-4.667,0-8.799-1.337-12.402-4.001c-5.065-4.269-7.534-10.869-7.399-19.808
			c0-9.46,3-16.199,9-20.201c3.201-2.262,6.803-3.403,10.801-3.403C114.163,60.095,117.898,61.168,121.1,63.301z M109.897,97.107
			c6.536,0,9.803-4.469,9.803-13.409c0-8.667-3.267-12.996-9.803-12.996c-1.735,0-3.398,0.529-4.998,1.596
			c-2.937,1.867-4.402,5.667-4.402,11.4V84.5C100.497,92.903,103.632,97.107,109.897,97.107z"/>
		<path fill="#FFFFFF" d="M142.901,40.498c1.466,0,2.734,0.53,3.8,1.596c1.067,1.072,1.604,2.337,1.604,3.799v29.411l17-16.208
			c1.732-1.597,3.731-1.933,5.999-1c0.534,0.272,1.067,0.669,1.604,1.206c1.598,1.735,1.932,3.667,0.998,5.798
			c-0.4,0.671-0.801,1.264-1.201,1.801L160.304,78.5l15.002,20.408c1.466,1.997,1.533,3.998,0.199,5.999
			c-0.4,0.537-0.867,1-1.401,1.395c-1.866,1.472-3.867,1.537-5.998,0.207c-0.537-0.264-1.005-0.671-1.401-1.206l-14.205-19.398
			l-4.197,3.997v12.203c0,2.001-0.868,3.536-2.603,4.603c-1.868,1.065-3.667,1.065-5.4,0c-1.734-1.067-2.602-2.602-2.602-4.603
			V45.894c0-2.263,1-3.867,2.999-4.798C141.369,40.697,142.1,40.498,142.901,40.498z"/>
		<path fill="#FFFFFF" d="M191.705,61.5c1.066,1.067,1.603,2.337,1.603,3.799v36.806c0,2.001-0.867,3.536-2.601,4.603
			c-1.869,1.065-3.67,1.065-5.4,0c-1.735-1.067-2.603-2.602-2.603-4.603V65.299c0-0.8,0.2-1.536,0.601-2.195
			c0.8-2.141,2.333-3.207,4.6-3.207C189.503,59.897,190.772,60.434,191.705,61.5z"/>
		<path fill="#FFFFFF" d="M202.711,79.501c0-4.668,1.397-8.733,4.2-12.201c3.332-4.266,8.203-6.404,14.602-6.404
			c9.6,0.935,15.535,5.271,17.804,13.006c0.401,1.731,0.665,3.6,0.801,5.599v22.803c0,2.139-1.004,3.667-3.003,4.601
			c-0.797,0.404-1.533,0.604-2.198,0.604c-2.269,0-3.804-1.067-4.602-3.206c-0.268-0.661-0.4-1.332-0.4-1.998V79.501
			c-0.267-4.933-3.069-7.666-8.402-8.202c-4.536,0-7.267,2.139-8.2,6.4c-0.137,0.671-0.201,1.272-0.201,1.802v22.803
			c0,2.139-1.066,3.667-3.202,4.601c-0.533,0.404-1.197,0.604-1.998,0.604c-2.27,0-3.867-1.067-4.8-3.206
			c-0.269-0.661-0.4-1.332-0.4-1.998V79.501z"/>
		<path fill="#FFFFFF" d="M280.519,122.508c-1.338,0.937-2.737,1.728-4.202,2.399c-2,0.666-5.468,0.999-10.405,0.999h-0.796
			l-4.599-0.999c-0.139,0-0.671-0.068-1.603-0.199c-3.065-0.935-5.334-2.67-6.803-5.203c-1.066-1.596-1.135-3.332-0.194-5.197
			c0.93-1.867,2.463-2.803,4.594-2.803c2.005,0,3.537,0.868,4.604,2.604l-0.2-0.602l2.399,1.195c0.935,0.271,1.936,0.471,3,0.604
			c4.136,0,6.67-0.333,7.601-0.999c1.333-1.066,2.135-4,2.402-8.8c-2.532,1.065-5.334,1.736-8.401,2
			c-3.337,0-6.599-1.067-9.801-3.206l-1.604-1.197c-5.2-4.404-7.799-10.865-7.799-19.406c0-1.728,0.134-3.397,0.402-5
			c1.066-7.195,4.066-12.4,9-15.595c3.202-2.141,6.866-3.207,11.001-3.207c4.136,0,7.734,1.198,10.8,3.601
			c4.669,4.139,7.002,10.27,7.002,18.406v20.4C286.917,111.903,284.782,118.638,280.519,122.508z M268.515,70.496
			c-0.134,0.14-0.334,0.207-0.6,0.207c-1.203,0-2.536,0.397-4.001,1.198c-3.065,2.131-4.603,6.065-4.603,11.798v0.604
			c0.14,7.6,3.006,11.804,8.604,12.597c1.599-0.133,3.133-0.594,4.6-1.395l1.004-0.2c1.998-1.199,2.997-3.538,2.997-7.006v-6.396
			c0-5.599-1.397-9.07-4.2-10.399c-0.936-0.671-2.068-1.008-3.397-1.008H268.515z"/>
		<path fill="#63C5B5" d="M150.088,126.305l2.8,0.398c2,0.537,3.334,1.802,4.003,3.799c0.532,2.14,0,3.932-1.603,5.403
			c-1.468,1.47-3.198,1.866-5.2,1.199l-3.399-0.399c-1.2,0-2.137,0.399-2.802,1.2c-0.664,0.666-1,1.997-1,3.997v5.004h8.603
			c2.003-0.136,3.535,0.729,4.601,2.597c1.064,1.867,1.064,3.602,0,5.204c-1.066,1.866-2.598,2.801-4.601,2.801h-8.603v48.419
			c0,2.141-0.801,3.734-2.398,4.799c-1.868,1.065-3.735,1.065-5.602,0c-1.735-1.064-2.599-2.658-2.599-4.799v-48.419h-1.201
			c-2.137,0-3.735-0.935-4.8-2.801c-0.933-1.603-0.933-3.337,0-5.204c1.064-1.867,2.663-2.732,4.8-2.597h1.201v-5.004
			c0-4.527,1.132-8.128,3.399-10.797c1.865-2.405,4.465-3.934,7.799-4.603C145.621,126.099,147.819,126.04,150.088,126.305z"/>
		<path fill="#FFFFFF" d="M196.095,148.108c6.001,4.531,9.001,11.333,9.001,20.397c0,9.739-3,16.604-9.001,20.602
			c-3.334,2.14-7.067,3.207-11.203,3.207c-4.667,0-8.799-1.338-12.4-4.001c-5.068-4.271-7.534-10.87-7.402-19.808
			c0-9.462,3.002-16.203,9.001-20.199c3.202-2.266,6.803-3.404,10.801-3.404C189.16,144.902,192.895,145.977,196.095,148.108z
			 M184.892,181.913c6.534,0,9.801-4.47,9.801-13.407c0-8.668-3.267-12.999-9.801-12.999c-1.734,0-3.399,0.533-4.998,1.598
			c-2.937,1.867-4.403,5.668-4.403,11.401v0.801C175.492,177.708,178.626,181.913,184.892,181.913z"/>
		<path fill="#FFFFFF" d="M232.9,144.704c7.331,0,12.867,3.27,16.601,9.805c1.064,1.999,1.064,3.935,0,5.802
			c-1.2,1.731-2.868,2.534-4.999,2.394c-2.135-0.265-3.603-1.394-4.404-3.396c-0.933-1.865-2.134-2.999-3.598-3.402
			c-1.069-0.264-2.267-0.399-3.6-0.399c-3.471,0-5.801,0.936-7.002,2.802c-0.132,0.265-0.333,0.596-0.6,1
			c-0.669,1.465-1.069,2.999-1.201,4.603v22.998c0,2.001-0.797,3.537-2.399,4.604c-1.869,1.064-3.668,1.064-5.4,0
			c-1.734-1.067-2.602-2.604-2.602-4.604v-22.998c0.667-9.204,4.735-15.136,12.202-17.805
			C228.03,145.176,230.364,144.704,232.9,144.704z"/>
		<path fill="#63C5B5" d="M289.901,207.313c-1.333,0.936-2.731,1.729-4.195,2.4c-2.005,0.667-5.47,0.997-10.407,0.997h-0.795
			l-4.603-0.997c-0.134,0-0.667-0.068-1.599-0.198c-3.071-0.936-5.336-2.671-6.803-5.205c-1.065-1.596-1.134-3.331-0.198-5.196
			c0.935-1.867,2.467-2.802,4.598-2.802c2.005,0,3.538,0.866,4.603,2.602l-0.199-0.602l2.398,1.197
			c0.937,0.271,1.937,0.47,3.002,0.603c4.136,0,6.664-0.332,7.6-0.998c1.333-1.066,2.136-4,2.403-8.802
			c-2.538,1.067-5.335,1.737-8.4,2.002c-3.339,0-6.604-1.067-9.805-3.207l-1.602-1.197c-5.199-4.401-7.799-10.865-7.799-19.404
			c0-1.729,0.135-3.398,0.403-5.001c1.063-7.195,4.062-12.399,8.997-15.597c3.201-2.14,6.868-3.204,10.999-3.204
			c4.137,0,7.739,1.198,10.806,3.603c4.667,4.137,7,10.267,7,18.402v20.4C296.306,196.71,294.171,203.444,289.901,207.313z
			 M277.902,155.304c-0.134,0.139-0.333,0.203-0.597,0.203c-1.203,0-2.538,0.399-4.005,1.199c-3.062,2.132-4.601,6.066-4.601,11.8
			v0.603c0.136,7.6,3.002,11.804,8.605,12.596c1.597-0.131,3.131-0.592,4.598-1.394l1.001-0.198c2.001-1.198,3.001-3.54,3.001-7.007
			v-6.396c0-5.598-1.403-9.068-4.2-10.399c-0.935-0.667-2.069-1.006-3.399-1.006H277.902z"/>
		<path fill="#FFFFFF" d="M325.106,144.704c7.335,0,12.87,3.27,16.604,9.805c1.064,1.999,1.064,3.935,0,5.802
			c-1.196,1.731-2.867,2.534-4.998,2.394c-2.135-0.265-3.602-1.394-4.404-3.396c-0.931-1.865-2.135-2.999-3.599-3.402
			c-1.068-0.264-2.266-0.399-3.603-0.399c-3.467,0-5.799,0.936-6.997,2.802c-0.136,0.265-0.338,0.596-0.603,1
			c-0.666,1.465-1.068,2.999-1.199,4.603v22.998c0,2.001-0.797,3.537-2.403,4.604c-1.866,1.064-3.667,1.064-5.396,0
			c-1.737-1.067-2.603-2.604-2.603-4.604v-22.998c0.663-9.204,4.733-15.136,12.203-17.805
			C320.241,145.176,322.574,144.704,325.106,144.704z"/>
		<path fill="#FFFFFF" d="M381.518,148.108c6,4.531,9.002,11.333,9.002,20.397c0,9.739-3.002,16.604-9.002,20.602
			c-3.335,2.14-7.068,3.207-11.202,3.207c-4.668,0-8.8-1.338-12.401-4.001c-5.067-4.271-7.535-10.87-7.402-19.808
			c0-9.462,3.002-16.203,9.003-20.199c3.199-2.266,6.804-3.404,10.801-3.404C374.579,144.902,378.317,145.977,381.518,148.108z
			 M370.315,181.913c6.535,0,9.803-4.47,9.803-13.407c0-8.668-3.268-12.999-9.803-12.999c-1.737,0-3.4,0.533-4.998,1.598
			c-2.937,1.867-4.403,5.668-4.403,11.401v0.801C360.914,177.708,364.049,181.913,370.315,181.913z"/>
		<path fill="#FFFFFF" d="M404.32,144.704c1.463,0,2.799,0.536,4.001,1.601c1.065,1.066,1.598,2.396,1.598,4.002v22.799
			c0,1.867,0.334,3.403,1,4.603c0.936,1.734,2.066,2.867,3.4,3.404c1.204,0.395,2.537,0.592,4.001,0.592
			c3.334,0,5.603-0.998,6.802-2.998l0.602-0.998c0.663-1.464,1.002-3.001,1.002-4.603v-22.799c0-2.134,0.931-3.737,2.797-4.803
			c1.866-1.064,3.595-1.064,5.196,0c1.87,1.065,2.802,2.669,2.802,4.803v22.799c-0.8,9.201-4.932,15.208-12.398,18.002
			c-2.134,0.801-4.398,1.207-6.802,1.207c-6.401,0-11.397-2.405-15.001-7.204c-0.665-0.802-1.267-1.669-1.801-2.604
			c-1.599-3.063-2.399-6.196-2.399-9.4v-22.799c0-2.398,0.999-4.065,3.001-5.001C402.788,144.902,403.522,144.704,404.32,144.704z"
			/>
		<path fill="#FFFFFF" d="M466.329,145.108c3.331,0,6.396,0.998,9.193,3c6.142,4.13,9.206,10.936,9.206,20.397
			c0,1.732-0.07,3.335-0.2,4.808c-1.063,7.193-4.066,12.467-9.006,15.794c-2.659,1.735-5.932,2.801-9.795,3.207
			c-2.801,0-5.669-0.67-8.604-2.002v15.202c0,1.999-0.801,3.528-2.403,4.603c-1.867,1.064-3.732,1.064-5.598,0
			c-1.595-1.074-2.397-2.604-2.397-4.603v-38.806c0-2.403,0.266-4.667,0.803-6.806c1.328-6.263,4.261-10.6,8.795-12.997
			c2.936-1.601,6.065-2.268,9.404-2.004h0.602V145.108z M457.729,177.109c0.927,2.4,3.596,3.935,7.998,4.595
			c1.33,0,2.669-0.461,3.997-1.394c2.931-2.133,4.402-6.064,4.402-11.805c0-6.529-2.064-10.734-6.203-12.6l-2.196-0.399
			c-0.134,0-0.334,0-0.606,0c-1.328-0.129-2.594,0.136-3.796,0.803c-2.803,1.331-4.201,4.802-4.201,10.399v6.396
			C457.124,174.707,457.322,176.046,457.729,177.109z"/>
	</g>
	<path fill="#64C5B4" d="M191.508,41.896c1.197,1.198,1.799,2.603,1.799,4.205v0.793c0,2.007-0.867,3.536-2.601,4.601
		c-1.869,1.073-3.67,1.073-5.4,0c-1.735-1.065-2.603-2.594-2.603-4.601v-0.793c0-0.671,0.132-1.272,0.401-1.801
		c0.665-2.139,2.132-3.338,4.4-3.602C188.971,40.434,190.307,40.832,191.508,41.896z"/>
	<path fill="#63C5B5" d="M14.879,94.354c1.197,1.197,1.801,2.602,1.801,4.205v0.793c0,2.006-0.869,3.536-2.603,4.603
		c-1.866,1.072-3.667,1.072-5.396,0c-1.734-1.067-2.603-2.596-2.603-4.603v-0.793c0-0.671,0.132-1.272,0.398-1.802
		c0.669-2.139,2.13-3.337,4.402-3.603C12.344,92.89,13.681,93.289,14.879,94.354z"/>
	<path fill="#63C5B5" d="M204.133,126.703c1.197,1.197,1.8,2.603,1.8,4.204v0.792c0,2.007-0.867,3.535-2.601,4.604
		c-1.869,1.071-3.67,1.071-5.4,0c-1.734-1.069-2.603-2.598-2.603-4.604v-0.792c0-0.67,0.132-1.272,0.4-1.801
		c0.665-2.14,2.133-3.339,4.399-3.603C201.597,125.239,202.93,125.637,204.133,126.703z"/>
	<path fill="#63C5B5" d="M378.915,126.703c1.2,1.197,1.801,2.603,1.801,4.204v0.792c0,2.007-0.865,3.535-2.602,4.604
		c-1.866,1.071-3.668,1.071-5.4,0c-1.732-1.069-2.601-2.598-2.601-4.604v-0.792c0-0.67,0.133-1.272,0.401-1.801
		c0.661-2.14,2.131-3.339,4.398-3.603C376.378,125.239,377.716,125.637,378.915,126.703z"/>
	<path fill="#63C5B5" d="M474.53,206.962c1.2,1.198,1.802,2.603,1.802,4.206v0.794c0,2.004-0.865,3.532-2.603,4.602
		c-1.865,1.072-3.668,1.072-5.403,0c-1.733-1.069-2.599-2.598-2.599-4.602v-0.794c0-0.67,0.13-1.271,0.403-1.8
		c0.662-2.14,2.129-3.338,4.395-3.602C471.998,205.502,473.327,205.896,474.53,206.962z"/>
</g>
</svg>
